<?xml version="1.0" encoding="UTF-8" standalone="no"?>
<svg
   width="435.8819"
   zoomAndPan="magnify"
   viewBox="0 0 326.91142 121.82354"
   height="162.4314"
   preserveAspectRatio="xMidYMid"
   version="1.0"
   id="svg38"
   sodipodi:docname="SNEAKER (500 x 200 px).svg"
   inkscape:version="1.3.2 (091e20e, 2023-11-25)"
   xmlns:inkscape="http://www.inkscape.org/namespaces/inkscape"
   xmlns:sodipodi="http://sodipodi.sourceforge.net/DTD/sodipodi-0.dtd"
   xmlns="http://www.w3.org/2000/svg"
   xmlns:svg="http://www.w3.org/2000/svg">
  <sodipodi:namedview
     id="namedview38"
     pagecolor="#ffffff"
     bordercolor="#000000"
     borderopacity="0.25"
     inkscape:showpageshadow="2"
     inkscape:pageopacity="0.0"
     inkscape:pagecheckerboard="0"
     inkscape:deskcolor="#d1d1d1"
     inkscape:zoom="2.016"
     inkscape:cx="271.57738"
     inkscape:cy="62.003968"
     inkscape:window-width="1920"
     inkscape:window-height="1014"
     inkscape:window-x="0"
     inkscape:window-y="199"
     inkscape:window-maximized="1"
     inkscape:current-layer="svg38" />
  <defs
     id="defs1">
    <g
       id="g1" />
    <clipPath
       id="df1fd9356d">
      <path
         d="M 20.992188,132.88672 H 139.55078 V 254.47266 H 20.992188 Z m 0,0"
         clip-rule="nonzero"
         id="path1" />
    </clipPath>
  </defs>
  <g
     id="g41"
     transform="translate(-20.992188,-132.88672)">
    <g
       clip-path="url(#df1fd9356d)"
       id="g2">
      <path
         fill="#000000"
         d="M 20.992188,132.88672 H 139.55078 V 254.68359 H 20.992188 Z m 0,0"
         fill-opacity="1"
         fill-rule="nonzero"
         id="path2" />
    </g>
    <g
       fill="#ffffff"
       fill-opacity="1"
       id="g5">
      <g
         transform="translate(46.30966,237.52535)"
         id="g4">
        <g
           id="g3">
          <path
             d="M 23.484375,-52.3125 C 22.359375,-52.5 21.75,-53.15625 21.65625,-54.28125 v -18.703125 c 0.1875,-1.21875 0.796875,-1.875 1.828125,-1.96875 h 37.125 v -14.34375 l -32.765625,-0.5625 c -11.53125,-0.28125 -18.796875,3.84375 -21.796875,12.375 -0.84375,2.53125 -1.265625,5.296875 -1.265625,8.296875 v 11.25 c 0,12.84375 6.75,19.640625 20.25,20.390625 0.9375,0.09375 1.828125,0.140625 2.671875,0.140625 h 17.15625 c 1.125,0.1875 1.734375,0.84375 1.828125,1.96875 v 19.125 c -0.1875,1.21875 -0.796875,1.875 -1.828125,1.96875 h -38.25 V 0 l 34.03125,0.5625 c 12.65625,0.375 20.0625,-4.40625 22.21875,-14.34375 0.46875,-1.96875 0.703125,-4.03125 0.703125,-6.1875 v -11.8125 C 63.5625,-42.5625 58.5,-49.125 48.375,-51.46875 45.9375,-52.03125 43.3125,-52.3125 40.5,-52.3125 Z m 0,0"
             id="path3" />
        </g>
      </g>
    </g>
  </g>
  <g
     id="g39"
     transform="matrix(1.0170451,0,0,1,-23.625724,-132.88672)">
    <g
       fill="#000000"
       fill-opacity="1"
       id="g8">
      <g
         transform="translate(152.0979,169.09998)"
         id="g7">
        <g
           id="g6">
          <path
             d="M 7.4375,-19.359375 C 7,-19.429688 6.765625,-19.648438 6.734375,-20.015625 V -30.40625 c 0.070313,-0.40625 0.304687,-0.625 0.703125,-0.65625 h 15.375 v -3.671875 l -12.96875,-0.21875 c -4.1875,-0.03125 -6.609375,1.632813 -7.265625,4.984375 -0.117187,0.585938 -0.171875,1.183594 -0.171875,1.796875 V -21.875 c 0,3.429688 1.492188,5.449219 4.484375,6.0625 0.800781,0.1875 1.710937,0.28125 2.734375,0.28125 h 9.078125 c 0.4375,0.07422 0.675781,0.292969 0.71875,0.65625 v 10.546875 c -0.07422,0.40625 -0.3125,0.625 -0.71875,0.65625 H 2.84375 V 0 l 13.671875,0.21875 c 4.78125,0 7.1875,-2.222656 7.21875,-6.671875 v -6.453125 c -0.07422,-4.269531 -2.554687,-6.421875 -7.4375,-6.453125 z m 0,0"
             id="path5" />
        </g>
      </g>
    </g>
    <g
       fill="#000000"
       fill-opacity="1"
       id="g11">
      <g
         transform="translate(177.96148,169.09998)"
         id="g10">
        <g
           id="g9">
          <path
             d="M 24.453125,0 H 27.34375 V -34.734375 H 23.6875 v 26.6875 L 6.625,-34.734375 H 3.71875 V 0 H 7.4375 v -26.75 z m 0,0"
             id="path8" />
        </g>
      </g>
    </g>
    <g
       fill="#000000"
       fill-opacity="1"
       id="g14">
      <g
         transform="translate(209.07432,169.09998)"
         id="g13">
        <g
           id="g12">
          <path
             d="M 23.25,0 V -3.671875 H 8.15625 v -12.1875 H 22.046875 V -19.46875 H 8.15625 V -31.0625 h 14.8125 v -3.671875 H 3.9375 V 0 Z m 0,0"
             id="path11" />
        </g>
      </g>
    </g>
    <g
       fill="#000000"
       fill-opacity="1"
       id="g17">
      <g
         transform="translate(234.17238,169.09998)"
         id="g16">
        <g
           id="g15">
          <path
             d="M 28.109375,0 19.53125,-34.734375 15.046875,-34.84375 c -2.1875,0 -3.667969,0.460938 -4.4375,1.375 -0.511719,0.65625 -1.023437,1.898438 -1.53125,3.71875 L 0.71875,0 h 3.9375 l 2.453125,-9.1875 h 14.5 L 23.90625,0 Z M 12.96875,-30.625 c 0.101562,-0.289062 0.285156,-0.457031 0.546875,-0.5 h 2.84375 l 4.484375,18.328125 h -12.75 z m 0,0"
             id="path14" />
        </g>
      </g>
    </g>
    <g
       fill="#000000"
       fill-opacity="1"
       id="g20">
      <g
         transform="translate(262.87931,169.09998)"
         id="g19">
        <g
           id="g18">
          <path
             d="m 16.578125,-15.8125 c 0.21875,0 0.378906,0.148438 0.484375,0.4375 L 17.125,-15.3125 24.671875,0 h 4.484375 l -6.671875,-13.296875 c -0.992187,-2.039063 -1.792969,-3.296875 -2.40625,-3.765625 -0.335937,-0.257812 -0.664063,-0.460938 -0.984375,-0.609375 0.976562,-0.394531 1.832031,-1.414063 2.5625,-3.0625 0.144531,-0.363281 0.3125,-0.765625 0.5,-1.203125 l 5.625,-12.796875 H 23.578125 L 17.125,-19.90625 c -0.1875,0.292969 -0.355469,0.453125 -0.5,0.484375 H 8.421875 v -15.3125 H 4.21875 V 0 h 4.203125 v -15.8125 z m 0,0"
             id="path17" />
        </g>
      </g>
    </g>
    <g
       fill="#000000"
       fill-opacity="1"
       id="g23">
      <g
         transform="translate(292.46112,169.09998)"
         id="g22">
        <g
           id="g21">
          <path
             d="M 23.25,0 V -3.671875 H 8.15625 v -12.1875 H 22.046875 V -19.46875 H 8.15625 V -31.0625 h 14.8125 v -3.671875 H 3.9375 V 0 Z m 0,0"
             id="path20" />
        </g>
      </g>
    </g>
    <g
       fill="#000000"
       fill-opacity="1"
       id="g26">
      <g
         transform="translate(317.55918,169.09998)"
         id="g25">
        <g
           id="g24">
          <path
             d="m 8.265625,0 -0.0625,-14.28125 H 17.0625 c 0.4375,0.04297 0.726562,0.246094 0.875,0.609375 L 22.640625,0 H 26.90625 L 22.921875,-11.375 C 22.367188,-12.90625 21.75,-13.984375 21.0625,-14.609375 c 3.164062,-0.757813 4.769531,-2.910156 4.8125,-6.453125 v -7.21875 c -0.07422,-4.476562 -2.5,-6.703125 -7.28125,-6.671875 l -14.546875,0.21875 V 0 Z M 20.84375,-31.28125 c 0.394531,0.07422 0.613281,0.308594 0.65625,0.703125 v 12.03125 c -0.07422,0.4375 -0.292969,0.679687 -0.65625,0.71875 H 8.203125 V -31.28125 Z m 0,0"
             id="path23" />
        </g>
      </g>
    </g>
  </g>
  <g
     id="g40"
     transform="translate(-20.992188,-132.88672)">
    <g
       fill="#000000"
       fill-opacity="1"
       id="g29">
      <g
         transform="translate(149.85975,254.71027)"
         id="g28">
        <g
           id="g27">
          <path
             d="M 15.34375,0 15.234375,-25.1875 H 34.4375 c 8.9375,-0.132812 13.4375,-4.300781 13.5,-12.5 v -14.828125 c -0.136719,-8.320313 -4.636719,-12.453125 -13.5,-12.390625 L 7.515625,-64.5 V 0 Z m 23.25,-58.09375 c 0.75,0.136719 1.15625,0.574219 1.21875,1.3125 v 23.5625 c -0.136719,0.8125 -0.542969,1.257812 -1.21875,1.328125 H 15.234375 V -58.09375 Z m 0,0"
             id="path26" />
        </g>
      </g>
    </g>
    <g
       fill="#000000"
       fill-opacity="1"
       id="g32">
      <g
         transform="translate(200.53563,254.71027)"
         id="g31">
        <g
           id="g30">
          <path
             d="M 43.171875,0 V -6.8125 H 15.140625 V -29.453125 H 40.9375 V -36.15625 H 15.140625 V -57.6875 H 42.65625 V -64.5 H 7.3125 V 0 Z m 0,0"
             id="path29" />
        </g>
      </g>
    </g>
    <g
       fill="#000000"
       fill-opacity="1"
       id="g35">
      <g
         transform="translate(247.14931,254.71027)"
         id="g34">
        <g
           id="g33">
          <path
             d="M 43.171875,0 V -6.8125 H 15.140625 V -29.453125 H 40.9375 V -36.15625 H 15.140625 V -57.6875 H 42.65625 V -64.5 H 7.3125 V 0 Z m 0,0"
             id="path32" />
        </g>
      </g>
    </g>
    <g
       fill="#000000"
       fill-opacity="1"
       id="g38">
      <g
         transform="translate(293.76299,254.71027)"
         id="g37">
        <g
           id="g36">
          <path
             d="m 30.78125,-29.359375 c 0.40625,0 0.707031,0.273437 0.90625,0.8125 L 31.796875,-28.4375 45.8125,0 h 8.328125 L 41.75,-24.6875 c -1.835938,-3.789062 -3.324219,-6.125 -4.46875,-7 -0.617188,-0.476562 -1.226562,-0.851562 -1.828125,-1.125 1.820313,-0.738281 3.410156,-2.632812 4.765625,-5.6875 0.269531,-0.675781 0.578125,-1.421875 0.921875,-2.234375 L 51.59375,-64.5 h -7.8125 l -11.984375,27.53125 c -0.34375,0.542969 -0.652344,0.84375 -0.921875,0.90625 H 15.640625 V -64.5 h -7.8125 V 0 h 7.8125 v -29.359375 z m 0,0"
             id="path35" />
        </g>
      </g>
    </g>
  </g>
</svg>
